<svg height="16" xmlns="http://www.w3.org/2000/svg" width="16"><path d="M124.188 490c-1.206 0-2.188 1.017-2.188 2.219v10.562c0 1.202.982 2.219 2.188 2.219h11.624c1.206 0 2.188-1.017 2.188-2.219V492.22c0-1.202-.982-2.219-2.188-2.219h-11.625zm0 2h11.624c.123 0 .188.08.188.219v10.562c0 .138-.065.219-.188.219h-11.625c-.122 0-.187-.08-.187-.219V492.22c0-.138.065-.219.188-.219z" style="font-size:medium;font-style:normal;font-variant:normal;font-weight:400;font-stretch:normal;text-indent:0;text-align:start;text-decoration:none;line-height:normal;letter-spacing:normal;word-spacing:normal;text-transform:none;direction:ltr;block-progression:tb;writing-mode:lr-tb;text-anchor:start;color:#bebebe;fill:#bebebe;fill-opacity:1;stroke:none;stroke-width:2;marker:none;visibility:visible;display:inline;overflow:visible;enable-background:accumulate;font-family:Bitstream Vera Sans;-inkscape-font-specification:Bitstream Vera Sans" transform="translate(-122 -490)"/><path d="M126.313 495.906a.6.6 0 0 0-.25 1.031l1.562 1.563-1.563 1.563a.619.619 0 1 0 .876.875l2-2a.6.6 0 0 0 0-.875l-2-2a.6.6 0 0 0-.626-.157z" style="font-size:medium;font-style:normal;font-variant:normal;font-weight:400;font-stretch:normal;text-indent:0;text-align:start;text-decoration:none;line-height:normal;letter-spacing:normal;word-spacing:normal;text-transform:none;direction:ltr;block-progression:tb;writing-mode:lr-tb;text-anchor:start;color:#bebebe;fill:#bebebe;fill-opacity:1;stroke:none;stroke-width:1.20000005;marker:none;visibility:visible;display:inline;overflow:visible;enable-background:accumulate;font-family:Bitstream Vera Sans;-inkscape-font-specification:Bitstream Vera Sans" transform="translate(-122 -490)"/><path style="color:#bebebe;fill:#bebebe;fill-opacity:1;fill-rule:nonzero;stroke:none;stroke-width:1;marker:none;visibility:visible;display:inline;overflow:visible;enable-background:accumulate" d="M130 500h3v1h-3z" transform="translate(-122 -490)"/></svg>